<svg id="Layer_1" data-name="Layer 1" xmlns="http://www.w3.org/2000/svg" viewBox="0 0 36.73 31.41"><defs><style>.cls-1{fill:#8e99a8;}</style></defs><title>Artboard 1</title><path id="Vimeo" class="cls-1" d="M31.4,0c-5.1-.2-8.5,2.7-10.4,8.5a6.6,6.6,0,0,1,2.7-.6c1.9,0,2.7,1,2.5,3.1-.1,1.3-.9,3.1-2.5,5.5s-2.7,3.6-3.5,3.6c-1,0-1.9-1.8-2.7-5.5-.3-1.1-.8-3.8-1.5-8.3-.7-4.1-2.4-6-5.3-5.8Q8.9.66,5.3,3.81L0,8.51l1.7,2.2A11.18,11.18,0,0,1,4.6,9c1.3,0,2.4,2,3.5,5.9,1,3.6,2,7.2,3,10.7,1.5,3.9,3.3,5.8,5.4,5.8,3.5,0,7.7-3.2,12.7-9.6,4.8-6.1,7.3-10.9,7.5-14.5C37,2.61,35.2.21,31.4,0Z"/></svg>