<?xml version="1.0" encoding="utf-8"?>
<!-- Generator: Adobe Illustrator 20.1.0, SVG Export Plug-In . SVG Version: 6.00 Build 0)  -->
<svg version="1.1" id="Layer_1" xmlns="http://www.w3.org/2000/svg" xmlns:xlink="http://www.w3.org/1999/xlink" x="0px" y="0px"
	 viewBox="0 0 142.8 110.7" style="enable-background:new 0 0 142.8 110.7;" xml:space="preserve">
<style type="text/css">
	.st0{filter:url(#Adobe_OpacityMaskFilter);}
	.st1{enable-background:new    ;}
	.st2{clip-path:url(#SVGID_2_);}
	.st3{clip-path:url(#SVGID_5_);fill:url(#SVGID_6_);}
	.st4{clip-path:url(#SVGID_2_);mask:url(#SVGID_3_);}
	.st5{clip-path:url(#SVGID_8_);}
	.st6{clip-path:url(#SVGID_10_);fill:#231F20;}
	.st7{fill:none;stroke:#231F20;stroke-width:0.45;stroke-miterlimit:10;}
	.st8{fill:#231F20;}
	.st9{fill:none;stroke:#231F20;stroke-width:1.8;stroke-miterlimit:10;}
	.st10{filter:url(#Adobe_OpacityMaskFilter_1_);}
	.st11{clip-path:url(#SVGID_12_);fill:url(#SVGID_14_);}
	.st12{clip-path:url(#SVGID_12_);mask:url(#SVGID_13_);}
	.st13{clip-path:url(#SVGID_16_);}
	.st14{clip-path:url(#SVGID_18_);fill:#231F20;}
	.st15{filter:url(#Adobe_OpacityMaskFilter_2_);}
	.st16{clip-path:url(#SVGID_20_);fill:url(#SVGID_22_);}
	.st17{clip-path:url(#SVGID_20_);mask:url(#SVGID_21_);}
	.st18{clip-path:url(#SVGID_24_);}
	.st19{clip-path:url(#SVGID_26_);fill:#231F20;}
	.st20{filter:url(#Adobe_OpacityMaskFilter_3_);}
	.st21{clip-path:url(#SVGID_28_);}
	.st22{clip-path:url(#SVGID_31_);fill:url(#SVGID_32_);}
	.st23{clip-path:url(#SVGID_28_);mask:url(#SVGID_29_);}
	.st24{clip-path:url(#SVGID_34_);}
	.st25{clip-path:url(#SVGID_36_);fill:#231F20;}
	.st26{clip-path:url(#SVGID_38_);fill:#231F20;}
	.st27{filter:url(#Adobe_OpacityMaskFilter_4_);}
	.st28{clip-path:url(#SVGID_40_);fill:url(#SVGID_42_);}
	.st29{clip-path:url(#SVGID_40_);mask:url(#SVGID_41_);}
	.st30{clip-path:url(#SVGID_44_);}
	.st31{clip-path:url(#SVGID_46_);fill:#231F20;}
	.st32{filter:url(#Adobe_OpacityMaskFilter_5_);}
	.st33{clip-path:url(#SVGID_48_);}
	.st34{clip-path:url(#SVGID_51_);fill:url(#SVGID_52_);}
	.st35{clip-path:url(#SVGID_48_);mask:url(#SVGID_49_);}
	.st36{clip-path:url(#SVGID_54_);}
	.st37{clip-path:url(#SVGID_56_);fill:#231F20;}
	.st38{filter:url(#Adobe_OpacityMaskFilter_6_);}
	.st39{clip-path:url(#SVGID_58_);}
	.st40{clip-path:url(#SVGID_61_);fill:url(#SVGID_62_);}
	.st41{clip-path:url(#SVGID_58_);mask:url(#SVGID_59_);}
	.st42{clip-path:url(#SVGID_64_);}
	.st43{clip-path:url(#SVGID_66_);fill:#231F20;}
	.st44{filter:url(#Adobe_OpacityMaskFilter_7_);}
	.st45{clip-path:url(#SVGID_68_);}
	.st46{clip-path:url(#SVGID_71_);fill:url(#SVGID_72_);}
	.st47{clip-path:url(#SVGID_68_);mask:url(#SVGID_69_);}
	.st48{clip-path:url(#SVGID_74_);}
	.st49{clip-path:url(#SVGID_76_);fill:#231F20;}
	.st50{filter:url(#Adobe_OpacityMaskFilter_8_);}
	.st51{clip-path:url(#SVGID_78_);}
	.st52{clip-path:url(#SVGID_81_);fill:url(#SVGID_82_);}
	.st53{clip-path:url(#SVGID_78_);mask:url(#SVGID_79_);}
	.st54{clip-path:url(#SVGID_84_);}
	.st55{clip-path:url(#SVGID_86_);fill:#231F20;}
</style>
<g>
	<g>
		<defs>
			
				<rect id="SVGID_1_" x="117.1" y="88.3" transform="matrix(0.8898 -0.4563 0.4563 0.8898 -28.7253 64.7849)" width="5.4" height="7.1"/>
		</defs>
		<clipPath id="SVGID_2_">
			<use xlink:href="#SVGID_1_"  style="overflow:visible;"/>
		</clipPath>
		<defs>
			<filter id="Adobe_OpacityMaskFilter" filterUnits="userSpaceOnUse" x="107.8" y="74" width="24" height="35.8">
				<feFlood  style="flood-color:white;flood-opacity:1" result="back"/>
				<feBlend  in="SourceGraphic" in2="back" mode="normal"/>
			</filter>
		</defs>
		<mask maskUnits="userSpaceOnUse" x="107.8" y="74" width="24" height="35.8" id="SVGID_3_">
			<g class="st0">
				<g class="st1">
					<g>
						<defs>
							
								<rect id="SVGID_4_" x="115.6" y="87.4" transform="matrix(0.4813 -0.8765 0.8765 0.4813 -18.3978 152.6703)" width="8.5" height="9"/>
						</defs>
						<clipPath id="SVGID_5_" class="st2">
							<use xlink:href="#SVGID_4_"  style="overflow:visible;"/>
						</clipPath>
						
							<linearGradient id="SVGID_6_" gradientUnits="userSpaceOnUse" x1="-228.5609" y1="420.0972" x2="-227.6609" y2="420.0972" gradientTransform="matrix(7.2713 3.9926 3.9926 -7.2713 100.6025 4056.9673)">
							<stop  offset="0" style="stop-color:#FFFFFF"/>
							<stop  offset="1" style="stop-color:#231F20"/>
						</linearGradient>
						<polygon class="st3" points="116.6,80.9 130.8,88.7 123,102.8 108.9,95 						"/>
					</g>
				</g>
			</g>
		</mask>
		<g class="st4">
			<g>
				<defs>
					<rect id="SVGID_7_" x="107.8" y="74" width="24" height="35.8"/>
				</defs>
				<clipPath id="SVGID_8_">
					<use xlink:href="#SVGID_7_"  style="overflow:visible;"/>
				</clipPath>
				<g class="st5">
					<defs>
						
							<rect id="SVGID_9_" x="115.5" y="74" transform="matrix(0.89 -0.456 0.456 0.89 -28.7153 64.7354)" width="8.6" height="35.9"/>
					</defs>
					<clipPath id="SVGID_10_">
						<use xlink:href="#SVGID_9_"  style="overflow:visible;"/>
					</clipPath>
					<path class="st6" d="M116,89.9c0.3,0,0.2-0.2,0.3-0.3l0,0.3c0.7-0.2,1.1,0.1,1.6,0.1c0.1,0.2,0.4,0,0.5,0.1
						c0.1,0.2,0.4,0.1,0.5,0.2l0,0.1l0.3-0.1l0.3,0.1c0.5,0.2,0.9,0.5,1.1,0.9c0.1-0.2,0.3-0.4,0.4-0.1c0,0,0,0,0,0
						c0,0.1,0,0.2,0,0.2c0,0.1-0.1,0.1,0,0.2c0,0,0,0.1,0.1,0.1c0.3-0.1,0.3-0.2,0.4-0.4c0.1,0,0.1,0.1,0.1,0.1c0,0.1,0,0.1,0,0.2
						c0,0.1-0.1,0.1,0,0.2c0,0,0,0.1,0,0.1c0.5-0.4,0.5-0.2,1.1-0.3l0.1,0c-0.3,0.8-1.6,0.2-2.1,0.9l0,0.1l-0.2,0.2
						c0.1,0.2,0.2,0.5,0.3,0.7c0.2,0.7,0.2,1.3,0.2,1.8l-0.1-0.3c0-0.4,0-0.8-0.2-1.2c0-0.1,0-0.1-0.1-0.2l-0.1-0.3c0,0,0,0,0-0.1
						c-0.1-0.2-0.2-0.4-0.3-0.5c0,0.3,0.1,0.8,0,1.1c-0.1-0.3-0.1-0.5-0.2-0.7c-0.1-0.2-0.1-0.4-0.2-0.7l0-0.1
						c-0.3,0.6,0.1,1.6,0.1,2.4c-0.2,0-0.3-0.2-0.4-0.4c0-0.1-0.1-0.3-0.1-0.5c0-0.2-0.1-0.3-0.1-0.5c-0.1-0.2-0.2-0.4-0.4-0.5
						c-0.1,0.1-0.1,0.4,0,0.6c0,0,0,0,0,0.1c0,0.2-0.1,0-0.1-0.1c0,0,0-0.1,0-0.1l-0.2-0.6l0.1-0.1c0.3,0.1,0.5,0.4,0.9,0.3
						c0,0-0.1-0.1-0.1-0.1c0,0,0-0.1,0-0.1c0,0,0-0.1,0-0.1c0,0,0-0.1-0.1-0.1c-0.1,0.4-0.7-0.6-1-0.6l0-0.1c-0.4-0.4-0.8-1-1.3-1.1
						c-0.4-0.1-0.7-0.5-1.2-0.5c0,0,0-0.1,0-0.1C115.8,89.9,116.1,90.1,116,89.9"/>
				</g>
			</g>
		</g>
	</g>
	<g>
		<path class="st7" d="M101.9,87c1.1,0.7,2.8,0.8,4.2,0.9c5.3,0.2,4.3-3.2,6-6c0.7-1.2-0.4-3-1-3.9l-10.2,0c-1.2,0.8-1,1.9-1,3.4
			C99.9,81.5,102.4,83,101.9,87z"/>
		<path class="st7" d="M70,50.4c-0.5-7.8,6.6-13.2,13.3-12.7c10.7,0.8,16.8,14.4,17.4,25.1c0.2,2.9,0,4.1,0.4,6.8"/>
		<path class="st7" d="M103.5,90.3c0,4.4-2.7,6.6-3.8,9.2c-0.8-0.9-0.4-2.4-0.1-3.2c-0.8,1.4-2.6,1.8-4,2.7c0.6-5.5,5.2-4.9,6.9-9.4
			c0.2-0.4,0.6-2-0.5-2.4c-1.3-0.5-0.6,1.4-1.1,2.7c-0.7,0.7-1.7,0.8-1.9,2c-0.6,0-0.5-0.5-0.9-0.7c-0.4,1-1.5,1.4-2.7,1.6
			c0.4-0.6-0.9,0-1.4,0.9c-1,1-1,2.9-1,2.9c-1.2-0.3-1.6-1.6-1.9-2.7c-0.5,1.2-0.2,3.1-0.7,4.2c-1.7-0.6-3.8-1.7-3.7-4.2"/>
		<path class="st7" d="M70,50.4c-0.5-7.8,6.6-13.2,13.3-12.7c10.7,0.8,16.8,14.4,17.4,25.1c0.2,2.9,0,4.1,0.4,7.1l2.9,0"/>
		<path class="st7" d="M91.3,93.9c-0.5,1.2-0.2,3.1-0.7,4.2c-1.7-0.6-3.8-1.9-3.7-4.4"/>
		<path class="st7" d="M99.7,96.4c-0.8,1.4-2.6,1.8-4,2.7c0.6-5.5,5.2-4.9,6.9-9.4"/>
		<path class="st7" d="M103.8,90.3c-0.2,4.8-1.7,7.9-3.5,10.9c1.6,0.2,2.7-0.9,3.5-0.9c-1.4,3.4-0.5,8.4,2.4,10
			c2.3-1.7,3.4-6.5,2.1-10.2c0.9,0.5,2.2,1.3,3.5,0.9c-1.9-2.7-3.9-6.1-3.6-10.4c0,4.4,3.3,5.4,4.5,8.5c0.4-0.6,0.6-2,0.3-2.8
			c0.8,1.4,2.6,1.8,4,2.7c-0.6-5.5-5.2-4.9-6.9-9.4c-0.2-0.4-1-2.6,0.1-2.8c1.4-0.3,0.9,1.9,1.5,3.1c0.7,0.7,1.7,0.8,1.9,2
			c0.6,0,0.5-0.5,0.9-0.7c0.4,1,1.5,1.4,2.7,1.6c-0.4-0.6,0.9,0,1.4,0.9c1,1,1,2.7,1,2.7c1.2-0.3,1.6-1.4,1.9-2.5
			c0.5,1.2,0.2,3.1,0.7,4.2c1.7-0.6,2.5-2.1,2.4-4.6c0.4,0,1.1,1.1,1.2,0.5c-0.4-1.9-1-3.2-2.3-4.1c2.7-0.2,4.7,1,3.6,3.6
			c0.9,0.6,1.6,0.2,1.8,0.1c-0.7,1.4-0.9,2.7-2.9,2.7c0.4,1.8,2,2.2,4.1,1.8c4.1-0.8,3.7-9.6-1.4-10.6c-2.5-0.5-4.8-0.1-7.1-0.4
			c-1.7-0.2-3.6-0.7-5-1.5c-1.1-0.7-3.1-2.2-3.9-3.3c-0.4-0.5-0.1-1.4-0.2-2c-0.1-1-0.8-1.5-0.6-2.1c1-0.1,1.6,0.2,2.4,0.1
			c5.6-0.2,5.9-8.5-0.1-8.7c0.1-7,2.4-13,6.6-16.2c1.3-1,3.1-1.8,4.9-1.8c2.7,0.1,5.3,2.5,4.3,5.5c-0.4,1.3-2.4,3.3-3.7,4.3
			c-2.6,2.3-5.7,4.3-5.6,8.2c0.1,3.4,2.2,4.6,4.6,6.3c0.2,0.5,0,0.6,0.3,1.2c0.5,0.2,1.1,0,1.3,0.1c-0.7,2.5,0.9,5.1-1.5,6.6
			c3.1,0.5,3.9-1.3,4.7-3v1.5c2.1-0.6,1.1-4.3,0.4-5.2c1.7,0.6,2.8,2.7,2.1,4.5c0.6-0.2,1.3-1,1.6-0.9c0.2,2,2,3.2,3.5,3.9
			c0.4-1.9-0.1-4.9-1.4-5.9c1-0.2,2.1-0.4,2.4-1.3c-3.6,0.1-3.9-3.9-6.9-3.9c0.8-0.8,1.4-1.7,1.3-3.4c-0.5,0.1-0.8,0.4-1.5,0.3
			c0.9-1.4,0.7-2.7-0.9-2.5c1.6,1.9-1.7,3.9-3.2,4.9c-1.1,0.1-1.3,0-1.8,0.3c-3.8-3.5,2.7-6.5,5-7.6c6.2-3,11.5-6.4,12.1-15.1
			c0.5-7.8-6.6-13.2-13.3-12.7c-10.7,0.8-16.8,14.4-17.4,25.1c-0.2,2.9,0,4.1-0.4,6.8l-3.1,0c-0.5-11.7,0.8-19.6,0.8-19.6
			c1.3-8.3,5.4-18.6,5.4-18.6c3.8-12.4-1.6-25.4-8.3-31.2c-1,1.2-2.2,2.8-2.2,2.8c-2.6,3.9-4.3,7.5-5.5,10.6
			c-1.7,5.5-2.2,11.8-0.2,18c0,0,1.1,3.8,1.4,4.9c0,0,1.9,7.1,2.7,13.9c0.2,1.5,0.5,4.5,0.7,7.9c0.3,7.5,0.3,11.6,0.3,11.6"/>
	</g>
	<g>
		<path class="st8" d="M13,64.1c0,1.5-0.6,2.6-1.7,3.4c-1.1,0.8-2.7,1.2-4.8,1.2H0v-16h6.2c1.9,0,3.3,0.4,4.4,1.1
			c1.1,0.7,1.6,1.7,1.6,3c0,1.5-0.8,2.7-2.5,3.4c1.1,0.3,2,0.7,2.5,1.4C12.7,62.4,13,63.2,13,64.1z M2.3,59.5h3.9
			c1.3,0,2.2-0.2,2.8-0.6c0.6-0.4,0.9-1,0.9-1.9c0-0.8-0.3-1.4-0.9-1.8c-0.6-0.4-1.6-0.6-3.1-0.6H2.3V59.5z M2.3,66.9h4.2
			c2.8,0,4.1-0.9,4.1-2.7c0-1-0.3-1.6-1-2.1c-0.6-0.4-1.8-0.7-3.5-0.7H2.3V66.9z"/>
	</g>
	<g>
		<path class="st8" d="M20.3,69c-1.6,0-2.9-0.5-3.8-1.4c-1-0.9-1.4-2.2-1.4-3.8c0-1.6,0.5-2.9,1.4-3.8c0.9-0.9,2.2-1.4,3.7-1.4
			c1.5,0,2.8,0.5,3.7,1.4c0.9,0.9,1.4,2.2,1.4,3.8v0.4H17c0.1,1.1,0.4,2,1,2.6c0.6,0.6,1.4,0.8,2.2,0.8c0.7,0,1.3-0.2,1.8-0.5
			c0.5-0.3,0.8-0.8,0.8-1.3h2c-0.1,1-0.7,1.8-1.5,2.4C22.6,68.7,21.5,69,20.3,69z M23.1,62.8c-0.2-1-0.5-1.7-1-2.1
			c-0.5-0.5-1.2-0.7-2-0.7c-0.8,0-1.4,0.2-2,0.7c-0.5,0.5-0.9,1.2-1,2.1H23.1z"/>
		<path class="st8" d="M29.2,68.8h-1.9V55.1h1.9V68.8z"/>
		<path class="st8" d="M33.9,68.8H32V55.1h1.9V68.8z"/>
	</g>
	<g>
		<path class="st8" d="M68,52.8l-6.8,16h-2.4l-6.8-16h2.5l5.5,13.7l5.5-13.7H68z"/>
	</g>
	<g>
		<path class="st8" d="M71.5,57h-1.9v-1.9h1.9V57z M71.5,68.8h-1.9v-9.9h1.9V68.8z"/>
		<path class="st8" d="M78.5,68.8c-0.4,0.1-0.9,0.1-1.4,0.1c-0.8,0-1.4-0.1-1.7-0.4c-0.4-0.3-0.6-0.6-0.7-1c-0.1-0.4-0.1-1-0.1-1.7
			v-5.6h-1.3v-1.4h1.3v-2.5h1.9v2.5h1.7v1.4h-1.7v5.7c0,0.7,0.1,1.1,0.3,1.3c0.2,0.2,0.4,0.3,0.8,0.3c0.3,0,0.7,0,1-0.1V68.8z"/>
	</g>
	<g>
		<path class="st8" d="M49.7,85.8c0,1.5-0.6,2.6-1.7,3.4c-1.1,0.8-2.7,1.2-4.8,1.2h-6.5v-16h6.2c1.9,0,3.3,0.4,4.4,1.1
			c1.1,0.7,1.6,1.7,1.6,3c0,1.5-0.8,2.7-2.5,3.4c1.1,0.3,2,0.7,2.5,1.4S49.7,84.9,49.7,85.8z M39,81.2h3.9c1.3,0,2.2-0.2,2.8-0.6
			c0.6-0.4,0.9-1,0.9-1.9c0-0.8-0.3-1.4-0.9-1.8c-0.6-0.4-1.6-0.6-3.1-0.6H39V81.2z M39,88.6h4.2c2.8,0,4.1-0.9,4.1-2.7
			c0-1-0.3-1.6-1-2.1c-0.6-0.4-1.8-0.7-3.5-0.7H39V88.6z"/>
	</g>
	<g>
		<path class="st8" d="M58.4,77.7c1.9,0,3.5,0.6,4.7,1.8c1.2,1.2,1.8,2.8,1.8,4.7c0,2-0.6,3.5-1.8,4.7c-1.2,1.2-2.8,1.8-4.7,1.8
			c-1.9,0-3.5-0.6-4.7-1.8c-1.2-1.2-1.8-2.8-1.8-4.7c0-2,0.6-3.5,1.8-4.7C54.9,78.3,56.5,77.7,58.4,77.7z M58.4,89.3
			c1.4,0,2.5-0.4,3.4-1.3c0.9-0.9,1.3-2.1,1.3-3.7c0-1.6-0.4-2.8-1.3-3.7c-0.9-0.9-2-1.3-3.3-1.3c-1.4,0-2.5,0.4-3.4,1.3
			c-0.9,0.9-1.3,2.1-1.3,3.7c0,1.6,0.4,2.8,1.3,3.7C55.9,88.8,57,89.3,58.4,89.3z"/>
		<path class="st8" d="M67.3,77.9h4.3c4.6,0,7,2.1,7,6.2c0,4.2-2.3,6.3-7,6.3h-4.3V77.9z M69.1,89h2.5c2,0,3.3-0.4,4.1-1.3
			c0.7-0.8,1.1-2,1.1-3.6c0-1.5-0.4-2.7-1.1-3.5c-0.7-0.8-2.1-1.2-4.1-1.2h-2.5V89z"/>
		<path class="st8" d="M92.2,77.9l-5.4,7.2v5.3H85v-5.3l-5.4-7.2h2.2l4.1,5.8l4.1-5.8H92.2z"/>
	</g>
	<g>
		<ellipse class="st9" cx="41.9" cy="63.8" rx="4.9" ry="4.5"/>
		<line class="st9" x1="47.1" y1="58.5" x2="47.1" y2="69"/>
		<ellipse class="st9" cx="85.6" cy="63.8" rx="4.9" ry="4.5"/>
		<line class="st9" x1="90.8" y1="58.5" x2="90.8" y2="69"/>
	</g>
	<g>
		<defs>
			<rect id="SVGID_11_" x="97.4" y="0" width="9.3" height="70.1"/>
		</defs>
		<clipPath id="SVGID_12_">
			<use xlink:href="#SVGID_11_"  style="overflow:visible;"/>
		</clipPath>
		<defs>
			<filter id="Adobe_OpacityMaskFilter_1_" filterUnits="userSpaceOnUse" x="83" y="-1.6" width="38" height="73.3">
				<feFlood  style="flood-color:white;flood-opacity:1" result="back"/>
				<feBlend  in="SourceGraphic" in2="back" mode="normal"/>
			</filter>
		</defs>
		<mask maskUnits="userSpaceOnUse" x="83" y="-1.6" width="38" height="73.3" id="SVGID_13_">
			<g class="st10">
				<g class="st1">
					
						<linearGradient id="SVGID_14_" gradientUnits="userSpaceOnUse" x1="-230.1148" y1="441.5663" x2="-229.2147" y2="441.5663" gradientTransform="matrix(-20.0801 0 0 -20.0801 -4512.9702 8901.749)">
						<stop  offset="0" style="stop-color:#FFFFFF"/>
						<stop  offset="1" style="stop-color:#231F20"/>
					</linearGradient>
					<rect x="97.4" y="0" class="st11" width="9.3" height="70.1"/>
				</g>
			</g>
		</mask>
		<g class="st12">
			<g>
				<defs>
					<rect id="SVGID_15_" x="83" y="-1.6" width="38" height="73.3"/>
				</defs>
				<clipPath id="SVGID_16_">
					<use xlink:href="#SVGID_15_"  style="overflow:visible;"/>
				</clipPath>
				<g class="st13">
					<defs>
						<rect id="SVGID_17_" x="83" y="-1.6" width="38" height="73.3"/>
					</defs>
					<clipPath id="SVGID_18_">
						<use xlink:href="#SVGID_17_"  style="overflow:visible;"/>
					</clipPath>
					<path class="st14" d="M103.9,70.1l2.8,0l-0.4-69.9l-4,6c0,0-3.5,6.1-4.1,9.3c0,0-1.2,5.9-0.9,7.7c0,0,0.1,4.6,0.6,5.8
						c0,0,1.4,4.9,1.6,5.8c0,0,1.5,5.6,1.6,6.4c0,0,1.2,5.4,1.2,6.1c0,0,0.8,5.6,0.7,6.1c0,0,0.7,8,0.6,8.6L103.9,70.1"/>
				</g>
			</g>
		</g>
	</g>
	<g>
		<defs>
			<polygon id="SVGID_19_" points="111.7,45.9 111.7,84.2 137.5,84.6 136.8,45.9 			"/>
		</defs>
		<clipPath id="SVGID_20_">
			<use xlink:href="#SVGID_19_"  style="overflow:visible;"/>
		</clipPath>
		<defs>
			<filter id="Adobe_OpacityMaskFilter_2_" filterUnits="userSpaceOnUse" x="84.6" y="44.3" width="79.3" height="41.4">
				<feFlood  style="flood-color:white;flood-opacity:1" result="back"/>
				<feBlend  in="SourceGraphic" in2="back" mode="normal"/>
			</filter>
		</defs>
		<mask maskUnits="userSpaceOnUse" x="84.6" y="44.3" width="79.3" height="41.4" id="SVGID_21_">
			<g class="st15">
				<g class="st1">
					
						<linearGradient id="SVGID_22_" gradientUnits="userSpaceOnUse" x1="-231.8179" y1="447.191" x2="-230.9178" y2="447.191" gradientTransform="matrix(-32.1882 0 0 -32.1882 -7326.5293 14459.332)">
						<stop  offset="0" style="stop-color:#FFFFFF"/>
						<stop  offset="1" style="stop-color:#231F20"/>
					</linearGradient>
					<rect x="111.7" y="45.9" class="st16" width="25.1" height="38.2"/>
				</g>
			</g>
		</mask>
		<g class="st17">
			<g>
				<defs>
					<rect id="SVGID_23_" x="84.6" y="44.3" width="79.3" height="41.4"/>
				</defs>
				<clipPath id="SVGID_24_">
					<use xlink:href="#SVGID_23_"  style="overflow:visible;"/>
				</clipPath>
				<g class="st18">
					<defs>
						<rect id="SVGID_25_" x="84.6" y="44.3" width="79.3" height="41.4"/>
					</defs>
					<clipPath id="SVGID_26_">
						<use xlink:href="#SVGID_25_"  style="overflow:visible;"/>
					</clipPath>
					<path class="st19" d="M128.3,46.1c-14.8,2.2-16.6,23.8-16.6,23.8l2.5,0c0-0.4,0,0.3-0.1-0.3c-0.5-4,2.2-10.9,2.2-10.9
						c4-6.1,6.8-6.9,9.1-6.9c1.9,0,3,0.8,3,0.8c4.6,4.8-3.3,9.7-3.3,9.7C114.7,70.5,125,76,125,76s0,1.2,0.6,1.3l1,0
						c0,0-0.3,1.9-0.1,3.4c0,0,0.1,2.6-1.4,3.2c0,0,3.5,0.8,4.7-2.9l0.1,1.4c0,0,1.4-0.2,1.2-2.6c-0.2-2.4,0,0,0,0l-0.7-2.6v0.1
						c0.7,0,1.1,0.7,1.4,1c0,0,0,0,0-0.1l0.1-0.1c0.3,0.1,0.5,0.3,0.8,0.3c0,0,0.1,0,0.1,0c-0.2-0.2,0-0.3-0.2-0.4
						c0,0.1-0.1,0.1-0.1,0.1c-0.2,0-0.6-0.7-0.9-0.7l0-0.1c-0.4-0.4-1.8-1.3-2.4-1.5c-0.4-0.1-2-1.5-2.4-1.5c0,0,0-0.1,0-0.1
						c0,0-0.1,0-0.1,0c-0.2,0.6-0.6,0.8-0.9,0.8c-0.6,0-1.3-0.6-1.3-0.6c-4.9-5.2-0.7-8-0.7-8c7.4-5.7,10.1-9.2,10.1-9.2
						c2.3-2.6,2.9-4.8,3-6.4v-0.2c0-1.8-0.8-2.8-0.8-2.8c-1.3-1.6-3.9-2-5.8-2C129.1,45.9,128.3,46.1,128.3,46.1 M130,75.4
						C130,75.4,130,75.3,130,75.4L130,75.4L130,75.4z M133.9,78.2L133.9,78.2l-0.2,0.2c0.5,0.9,0.5,1.9,0.4,2.5l-0.1-0.3
						c0-0.4,0-0.9-0.2-1.4l-0.1-0.3c-0.1-0.3-0.2-0.5-0.3-0.5c0,0.3,0.1,0.8,0,1.1c-0.1-0.6-0.2-0.8-0.4-1.4l0-0.1
						c-0.3,0.6,0.1,1.6,0.1,2.4c-0.6-0.1-0.3-1.7-0.9-2c0,0.1-0.1,0.1-0.1,0.2c0.7,1.1,0.4,2.9,0.4,2.9l1.4-0.9
						c0.9,3.3,3.5,4.1,3.5,4.1C137.3,82,135.2,79.7,133.9,78.2C133.8,78.3,133.9,78.2,133.9,78.2"/>
				</g>
			</g>
		</g>
	</g>
	<g>
		<defs>
			<rect id="SVGID_27_" x="126.6" y="74.1" width="9.2" height="4.2"/>
		</defs>
		<clipPath id="SVGID_28_">
			<use xlink:href="#SVGID_27_"  style="overflow:visible;"/>
		</clipPath>
		<defs>
			<filter id="Adobe_OpacityMaskFilter_3_" filterUnits="userSpaceOnUse" x="99.5" y="72.5" width="63.5" height="7.4">
				<feFlood  style="flood-color:white;flood-opacity:1" result="back"/>
				<feBlend  in="SourceGraphic" in2="back" mode="normal"/>
			</filter>
		</defs>
		<mask maskUnits="userSpaceOnUse" x="99.5" y="72.5" width="63.5" height="7.4" id="SVGID_29_">
			<g class="st20">
				<g class="st1">
					<g>
						<defs>
							
								<rect id="SVGID_30_" x="128.9" y="71.5" transform="matrix(5.200168e-02 -0.9986 0.9986 5.200168e-02 48.2892 203.2664)" width="4.7" height="9.4"/>
						</defs>
						<clipPath id="SVGID_31_" class="st21">
							<use xlink:href="#SVGID_30_"  style="overflow:visible;"/>
						</clipPath>
						
							<linearGradient id="SVGID_32_" gradientUnits="userSpaceOnUse" x1="-287.2134" y1="441.1379" x2="-286.3131" y2="441.1379" gradientTransform="matrix(0.2942 -5.6125 5.6125 0.2942 -2260.3096 -1663.1127)">
							<stop  offset="0" style="stop-color:#FFFFFF"/>
							<stop  offset="1" style="stop-color:#231F20"/>
						</linearGradient>
						<polygon class="st22" points="136,79.3 136.3,73.6 126.4,73.1 126.1,78.8 						"/>
					</g>
				</g>
			</g>
		</mask>
		<g class="st23">
			<g>
				<defs>
					<rect id="SVGID_33_" x="99.5" y="72.5" width="63.5" height="7.4"/>
				</defs>
				<clipPath id="SVGID_34_">
					<use xlink:href="#SVGID_33_"  style="overflow:visible;"/>
				</clipPath>
				<g class="st24">
					<defs>
						<rect id="SVGID_35_" x="99.5" y="72.5" width="63.5" height="7.4"/>
					</defs>
					<clipPath id="SVGID_36_">
						<use xlink:href="#SVGID_35_"  style="overflow:visible;"/>
					</clipPath>
					<path class="st25" d="M126.8,74.1c0.3,0,1.4,0.7,3,1.4l-0.3-0.4c0,0,0,0-0.1,0c-0.2,0-0.9-0.2-1.2-0.2c0,0-0.1,0.1-0.1,0.1
						c-0.1,0-0.4-0.2-0.7-0.3c-0.3-0.1-0.8-0.3-0.9-0.3C126.6,74.4,126.9,74.1,126.8,74.1 M129.9,75.6c1.3,0.6,2.7,1.5,4,2.8
						c0.6-0.5,1.6,0,2-0.7l-0.1,0c-0.6,0.1-0.7,0-1.1,0.3c-0.2-0.3,0.2-0.4-0.1-0.6c-0.1,0.1-0.1,0.3-0.4,0.4
						c-0.3-0.2,0-0.3-0.1-0.5c0-0.1-0.1-0.1-0.1-0.1c-0.1,0-0.2,0.1-0.3,0.2c-0.2-0.4-0.6-0.7-1.1-0.9l-0.3-0.1l-0.3,0.1l0-0.1
						c-0.1-0.1-0.4,0-0.5-0.2c0,0-0.1,0-0.1,0c0,0-0.1,0-0.1,0c0,0-0.1,0-0.1,0c-0.1,0-0.2,0-0.2-0.1c-0.4,0-0.5-0.4-0.8-0.4
						C130.1,75.5,130,75.5,129.9,75.6"/>
				</g>
				<g class="st24">
					<defs>
						<path id="SVGID_37_" d="M129.9,75.6c1,0.4,2,1,3,1.9h1.1c0-0.1,0.1-0.2,0-0.3c0-0.1-0.1-0.1-0.1-0.1c-0.1,0-0.2,0.1-0.3,0.2
							c-0.2-0.4-0.6-0.7-1.1-0.9l-0.3-0.1l-0.3,0.1l0-0.1c-0.1-0.1-0.4,0-0.5-0.2c0,0-0.1,0-0.1,0c0,0-0.1,0-0.1,0c0,0-0.1,0-0.1,0
							c-0.1,0-0.2,0-0.2-0.1c-0.4,0-0.5-0.4-0.8-0.4C130.1,75.5,130,75.5,129.9,75.6 M129.9,75.5l-0.3-0.4c0,0,0,0-0.1,0
							c-0.2,0-0.5-0.1-0.8-0.1C129.1,75.2,129.4,75.3,129.9,75.5 M126.9,74.1c0,0-0.3,0.3-0.3,0.3c0.2,0,0.6,0.2,0.9,0.3
							c0.3,0.1,0.6,0.3,0.7,0.3c0,0,0.1,0,0.1,0c0.1,0,0.2,0,0.4,0.1C127.7,74.5,127.1,74.1,126.9,74.1L126.9,74.1z"/>
					</defs>
					<clipPath id="SVGID_38_">
						<use xlink:href="#SVGID_37_"  style="overflow:visible;"/>
					</clipPath>
					<rect x="126.6" y="74.5" class="st26" width="9.2" height="5"/>
				</g>
			</g>
		</g>
	</g>
	<g>
		<defs>
			<rect id="SVGID_39_" x="126.9" y="74.3" width="7.3" height="7"/>
		</defs>
		<clipPath id="SVGID_40_">
			<use xlink:href="#SVGID_39_"  style="overflow:visible;"/>
		</clipPath>
		<defs>
			<filter id="Adobe_OpacityMaskFilter_4_" filterUnits="userSpaceOnUse" x="112.8" y="72.7" width="35.4" height="10.2">
				<feFlood  style="flood-color:white;flood-opacity:1" result="back"/>
				<feBlend  in="SourceGraphic" in2="back" mode="normal"/>
			</filter>
		</defs>
		<mask maskUnits="userSpaceOnUse" x="112.8" y="72.7" width="35.4" height="10.2" id="SVGID_41_">
			<g class="st27">
				<g class="st1">
					
						<linearGradient id="SVGID_42_" gradientUnits="userSpaceOnUse" x1="-237.4212" y1="463.5544" x2="-236.5211" y2="463.5544" gradientTransform="matrix(39.2706 0 0 39.2706 9436.5039 -18126.25)">
						<stop  offset="0" style="stop-color:#FFFFFF"/>
						<stop  offset="1" style="stop-color:#231F20"/>
					</linearGradient>
					<rect x="126.9" y="74.3" class="st28" width="7.3" height="7"/>
				</g>
			</g>
		</mask>
		<g class="st29">
			<g>
				<defs>
					<rect id="SVGID_43_" x="112.8" y="72.7" width="35.4" height="10.2"/>
				</defs>
				<clipPath id="SVGID_44_">
					<use xlink:href="#SVGID_43_"  style="overflow:visible;"/>
				</clipPath>
				<g class="st30">
					<defs>
						<rect id="SVGID_45_" x="112.8" y="72.7" width="35.4" height="10.2"/>
					</defs>
					<clipPath id="SVGID_46_">
						<use xlink:href="#SVGID_45_"  style="overflow:visible;"/>
					</clipPath>
					<path class="st31" d="M126.7,74.4c0.4,0,2.2,1.8,2.6,1.9c0.6,0.1,2,1,2.4,1.5l0,0.1c0.3,0.1,0.4,0.6,0.7,0.6
						c0,0,0.1,0.3,0.2,0.3c-0.1,0-0.2-0.1,0,0.1c0,0,0,0,0.2,0c0.3,0-0.5-0.2-0.8-0.3l-0.1,0.1c0,0,0,0,0,0.1
						c0.1,0.1,0.2,0.2,0.2,0.3c0-0.1,0-0.1,0.1-0.2c0.6,0.3,0.3,1.9,0.9,1.9c0-0.7-0.1-1.6-0.1-2.3l0,0.1c0.2,0.6,0.2,0.9,0.4,1.5
						c0.1-0.3,0.1-0.7,0-1.3c0,0.2,0.3,0.3,0.3,0.5l0.1,0.3c0.2,0.5,0.2,1,0.2,1.4l0.1,0.3c0.1-0.7,0.2-1.6-0.3-2.6l0.1-0.1l0-0.1
						c0-0.1,0.1-0.1,0.1-0.1c-1.2-1.3-2.6-2.2-3.9-2.7c0,0,0,0,0,0l0,0c-1.6-0.7-2.9-1.5-3.2-1.5C126.9,74.1,126.7,74.4,126.7,74.4"
						/>
				</g>
			</g>
		</g>
	</g>
	<g>
		<defs>
			<rect id="SVGID_47_" x="126.5" y="92.2" width="6.2" height="6.1"/>
		</defs>
		<clipPath id="SVGID_48_">
			<use xlink:href="#SVGID_47_"  style="overflow:visible;"/>
		</clipPath>
		<defs>
			<filter id="Adobe_OpacityMaskFilter_5_" filterUnits="userSpaceOnUse" x="113.4" y="90.7" width="32.4" height="9">
				<feFlood  style="flood-color:white;flood-opacity:1" result="back"/>
				<feBlend  in="SourceGraphic" in2="back" mode="normal"/>
			</filter>
		</defs>
		<mask maskUnits="userSpaceOnUse" x="113.4" y="90.7" width="32.4" height="9" id="SVGID_49_">
			<g class="st32">
				<g class="st1">
					<g>
						<defs>
							<polygon id="SVGID_50_" points="130.2,101.3 123.5,95.8 129.1,89.1 135.8,94.7 							"/>
						</defs>
						<clipPath id="SVGID_51_" class="st33">
							<use xlink:href="#SVGID_50_"  style="overflow:visible;"/>
						</clipPath>
						
							<linearGradient id="SVGID_52_" gradientUnits="userSpaceOnUse" x1="-242.9379" y1="434.6723" x2="-242.0379" y2="434.6723" gradientTransform="matrix(-10.1535 -8.4596 8.4596 -10.1535 -6008.3779 2458.3245)">
							<stop  offset="0" style="stop-color:#FFFFFF"/>
							<stop  offset="1" style="stop-color:#231F20"/>
						</linearGradient>
						<polygon class="st34" points="141.8,94.1 128.5,83.1 117.5,96.3 130.8,107.3 						"/>
					</g>
				</g>
			</g>
		</mask>
		<g class="st35">
			<g>
				<defs>
					<rect id="SVGID_53_" x="113.4" y="90.7" width="32.4" height="9"/>
				</defs>
				<clipPath id="SVGID_54_">
					<use xlink:href="#SVGID_53_"  style="overflow:visible;"/>
				</clipPath>
				<g class="st36">
					<defs>
						<rect id="SVGID_55_" x="113.4" y="90.7" width="32.4" height="9"/>
					</defs>
					<clipPath id="SVGID_56_">
						<use xlink:href="#SVGID_55_"  style="overflow:visible;"/>
					</clipPath>
					<path class="st37" d="M132.3,92.2c-0.2,0.4-0.4,1.6-0.6,2c-0.3,0.5-0.9,1.1-1.3,1.3l-0.1,0c-0.2,0.3-1.2,0.5-0.8,0.7
						c0,0.1-0.1,0.1-0.1,0.1c0,0-0.1,0-0.1,0c0,0-0.1,0-0.1,0c0,0-0.1,0-0.1,0c0.1-0.4,0.3-0.5,0.5-0.7l-0.1-0.1l-0.6,0
						c0,0-0.1,0-0.1,0c-0.1,0-0.3,0-0.2,0.1h0.1c0.2,0,0.4,0.1,0.5,0.2c-0.1,0.1-0.3,0.2-0.6,0.2c-0.2,0-0.3,0-0.5-0.1
						c-0.2,0-0.3,0-0.4-0.1c-0.2,0-0.4,0-0.5,0.2c0.6,0.2,1.6,0.2,2.1,0.6l-0.1,0c-0.3,0-0.5,0-0.6,0c-0.2,0-0.4,0-0.6,0
						c0.3,0.1,0.7,0.2,1,0.3c-0.1,0.1-0.3,0.2-0.5,0.1l0,0l-0.3,0c-0.1,0-0.1,0-0.2,0c-0.4,0-0.8-0.1-1.1-0.2l-0.2,0
						c0.4,0.2,1,0.3,1.6,0.4c0.2,0,0.5,0,0.7,0l0.1,0.2l0.1,0l0.2,0.9c0,0,0.1,0,0.1,0c0.1,0,0.2,0,0.2,0.1c0.1,0,0.1,0.1,0.1,0.1
						c0,0,0.1,0,0.1-0.1c-0.1-0.1-0.2-0.2-0.2-0.4c0.1-0.1,0.1-0.1,0.1-0.1c0,0,0.1,0,0.1,0.1c0.1,0,0.1,0.1,0.2,0.1c0,0,0,0,0,0
						c0.2,0,0.1-0.3,0-0.4c0.4,0,0.7,0,1-0.3l0.6-0.4l0.1-0.3l0-0.2c0.1-0.1,0.1-0.2,0.4-0.2c0.1-0.1,0-0.6,0.2-0.6
						c0.2-0.5,0.2-0.7,0.2-1.3l0.2,0.1c0-0.1-0.3-0.1-0.1-0.3C132.4,93.9,132.7,92.2,132.3,92.2C132.3,92.2,132.3,92.2,132.3,92.2"
						/>
				</g>
			</g>
		</g>
	</g>
	<g>
		<defs>
			<rect id="SVGID_57_" x="111" y="86.9" width="14.6" height="11.3"/>
		</defs>
		<clipPath id="SVGID_58_">
			<use xlink:href="#SVGID_57_"  style="overflow:visible;"/>
		</clipPath>
		<defs>
			<filter id="Adobe_OpacityMaskFilter_6_" filterUnits="userSpaceOnUse" x="96.7" y="85.3" width="43.3" height="14.5">
				<feFlood  style="flood-color:white;flood-opacity:1" result="back"/>
				<feBlend  in="SourceGraphic" in2="back" mode="normal"/>
			</filter>
		</defs>
		<mask maskUnits="userSpaceOnUse" x="96.7" y="85.3" width="43.3" height="14.5" id="SVGID_59_">
			<g class="st38">
				<g class="st1">
					<g>
						<defs>
							
								<rect id="SVGID_60_" x="109.6" y="83.3" transform="matrix(0.5418 -0.8405 0.8405 0.5418 -23.5602 141.8404)" width="17.4" height="18.4"/>
						</defs>
						<clipPath id="SVGID_61_" class="st39">
							<use xlink:href="#SVGID_60_"  style="overflow:visible;"/>
						</clipPath>
						
							<linearGradient id="SVGID_62_" gradientUnits="userSpaceOnUse" x1="-238.2991" y1="442.4258" x2="-237.399" y2="442.4258" gradientTransform="matrix(-17.9654 -11.5779 11.5779 -17.9654 -9276.5117 5287.4771)">
							<stop  offset="0" style="stop-color:#FFFFFF"/>
							<stop  offset="1" style="stop-color:#231F20"/>
						</linearGradient>
						<polygon class="st40" points="142,87.4 113.2,68.9 94.7,97.6 123.5,116.2 						"/>
					</g>
				</g>
			</g>
		</mask>
		<g class="st41">
			<g>
				<defs>
					<rect id="SVGID_63_" x="96.7" y="85.3" width="43.3" height="14.5"/>
				</defs>
				<clipPath id="SVGID_64_">
					<use xlink:href="#SVGID_63_"  style="overflow:visible;"/>
				</clipPath>
				<g class="st42">
					<defs>
						<rect id="SVGID_65_" x="96.7" y="85.3" width="43.3" height="14.5"/>
					</defs>
					<clipPath id="SVGID_66_">
						<use xlink:href="#SVGID_65_"  style="overflow:visible;"/>
					</clipPath>
					<path class="st43" d="M119.4,96.5c0,0,1.6-0.6,1.9-2.5l0.7,4.2c0,0,2.4-0.2,2.4-4.6l1,0.6l-0.5-0.5c0,0-2-1.8-3.4-1.8
						c-0.4,0-1.1,0.3-1.3,0.7c0,0-0.8-1.5-2.6-1.8c-0.3-0.1-1-0.1-1.5-0.6c0,0-1.9-0.7-5.4-3.3c0,0,0.5,0.7,0.5,1.9l0.3,1.1
						c0,0,1.8,1,1.8,1.9c0.1,0.9,0,0.1,0,0.1s0.6-0.3,1-0.7l0.4,0.5c0,0,1,0.9,2,1.1c0,0,0.1,0,0.1,0l0.2-0.2c0,0,1.6,0.9,2.1,2.3
						C119.2,95,119.5,96.1,119.4,96.5"/>
				</g>
			</g>
		</g>
	</g>
	<g>
		<defs>
			<polygon id="SVGID_67_" points="108.5,98.5 115.3,98.5 115.3,92.3 108.6,92.1 			"/>
		</defs>
		<clipPath id="SVGID_68_">
			<use xlink:href="#SVGID_67_"  style="overflow:visible;"/>
		</clipPath>
		<defs>
			<filter id="Adobe_OpacityMaskFilter_7_" filterUnits="userSpaceOnUse" x="94.2" y="90.7" width="35.4" height="9.4">
				<feFlood  style="flood-color:white;flood-opacity:1" result="back"/>
				<feBlend  in="SourceGraphic" in2="back" mode="normal"/>
			</filter>
		</defs>
		<mask maskUnits="userSpaceOnUse" x="94.2" y="90.7" width="35.4" height="9.4" id="SVGID_69_">
			<g class="st44">
				<g class="st1">
					<g>
						<defs>
							
								<rect id="SVGID_70_" x="108.2" y="91.5" transform="matrix(0.213 -0.9771 0.9771 0.213 -5.1668 184.4388)" width="7.5" height="7.9"/>
						</defs>
						<clipPath id="SVGID_71_" class="st45">
							<use xlink:href="#SVGID_70_"  style="overflow:visible;"/>
						</clipPath>
						
							<linearGradient id="SVGID_72_" gradientUnits="userSpaceOnUse" x1="-281.1714" y1="450.9327" x2="-280.2714" y2="450.9327" gradientTransform="matrix(1.3881 -6.3663 6.3663 1.3881 -2369.2539 -2317.4258)">
							<stop  offset="0" style="stop-color:#FFFFFF"/>
							<stop  offset="1" style="stop-color:#231F20"/>
						</linearGradient>
						<polygon class="st46" points="116.1,101.9 118.4,91.3 107.7,89 105.4,99.5 						"/>
					</g>
				</g>
			</g>
		</mask>
		<g class="st47">
			<g>
				<defs>
					<rect id="SVGID_73_" x="94.2" y="90.7" width="35.4" height="9.4"/>
				</defs>
				<clipPath id="SVGID_74_">
					<use xlink:href="#SVGID_73_"  style="overflow:visible;"/>
				</clipPath>
				<g class="st48">
					<defs>
						<rect id="SVGID_75_" x="94.2" y="90.7" width="35.4" height="9.4"/>
					</defs>
					<clipPath id="SVGID_76_">
						<use xlink:href="#SVGID_75_"  style="overflow:visible;"/>
					</clipPath>
					<path class="st49" d="M108.7,92.5c0.1,0.3-0.1,0.2-0.2,0.4l0.3-0.1c0,0.7,0.3,1,0.5,1.5c0.2,0,0.1,0.3,0.3,0.4
						c0.2,0,0.2,0.3,0.4,0.4h0.1v0.3l0.2,0.3c0.3,0.4,0.7,0.8,1.2,0.8c-0.1,0.1-0.3,0.4,0,0.4c0,0,0,0,0,0c0.1,0,0.2,0,0.2-0.1
						c0.1,0,0.1-0.1,0.2-0.1c0,0,0.1,0,0.1,0.1c0,0.3-0.2,0.3-0.3,0.4c0.1,0.1,0.1,0.1,0.1,0.1c0.1,0,0.1,0,0.2-0.1
						c0.1,0,0.1-0.1,0.2-0.1c0,0,0.1,0,0.1,0c-0.2,0.5-0.1,0.5,0,1.2v0.1c0.7-0.6-0.3-1.5,0.3-2.2h0.1l0.1-0.3
						c0.3,0.1,0.5,0.1,0.8,0.1c0.7,0,1.3-0.2,1.8-0.3H115c-0.4,0.1-0.8,0.2-1.2,0.2c-0.1,0-0.1,0-0.2,0h-0.4h-0.1
						c-0.2,0-0.4,0-0.6-0.2c0.3-0.1,0.8-0.1,1.1-0.3c-0.3,0-0.5,0-0.7,0c-0.2,0-0.4,0-0.7,0h-0.1c0.5-0.4,1.6-0.3,2.3-0.5
						c-0.1-0.2-0.3-0.2-0.5-0.2c-0.2,0-0.3,0-0.5,0c-0.2,0-0.3,0-0.5,0c-0.3,0-0.5,0-0.6-0.2c0.1-0.1,0.3-0.2,0.6-0.2c0,0,0,0,0.1,0
						c0.2-0.1,0-0.1-0.2-0.1c0,0-0.1,0-0.1,0h-0.6l-0.1,0.1c0.2,0.3,0.5,0.4,0.5,0.8c-0.1,0-0.1-0.1-0.1-0.1c0,0-0.1,0-0.1,0
						c0,0-0.1,0-0.1,0c0,0-0.1,0-0.1-0.1c0.4-0.3-0.7-0.5-0.9-0.8h-0.1c-0.5-0.3-1.1-0.4-1.4-1c-0.2-0.4-0.6-0.6-0.8-1
						c0,0-0.4-0.1-0.4-0.1C108.3,92.2,108.9,92.5,108.7,92.5"/>
				</g>
			</g>
		</g>
	</g>
	<g>
		<defs>
			<rect id="SVGID_77_" x="100.4" y="90.3" width="6" height="20.1"/>
		</defs>
		<clipPath id="SVGID_78_">
			<use xlink:href="#SVGID_77_"  style="overflow:visible;"/>
		</clipPath>
		<defs>
			<filter id="Adobe_OpacityMaskFilter_8_" filterUnits="userSpaceOnUse" x="86.1" y="88.8" width="34.7" height="23.3">
				<feFlood  style="flood-color:white;flood-opacity:1" result="back"/>
				<feBlend  in="SourceGraphic" in2="back" mode="normal"/>
			</filter>
		</defs>
		<mask maskUnits="userSpaceOnUse" x="86.1" y="88.8" width="34.7" height="23.3" id="SVGID_79_">
			<g class="st50">
				<g class="st1">
					<g>
						<defs>
							
								<rect id="SVGID_80_" x="99.8" y="90.2" transform="matrix(0.9977 -6.801751e-02 6.801751e-02 0.9977 -6.5883 7.2667)" width="7.3" height="20.4"/>
						</defs>
						<clipPath id="SVGID_81_" class="st51">
							<use xlink:href="#SVGID_80_"  style="overflow:visible;"/>
						</clipPath>
						
							<linearGradient id="SVGID_82_" gradientUnits="userSpaceOnUse" x1="-245.5503" y1="451.7813" x2="-244.65" y2="451.7813" gradientTransform="matrix(-1.782 -26.1401 26.1401 -1.782 -12143.3574 -5507.3228)">
							<stop  offset="0" style="stop-color:#FFFFFF"/>
							<stop  offset="1" style="stop-color:#231F20"/>
						</linearGradient>
						<polygon class="st52" points="109.2,110.7 107.7,89.4 97.7,90 99.1,111.4 						"/>
					</g>
				</g>
			</g>
		</mask>
		<g class="st53">
			<g>
				<defs>
					<rect id="SVGID_83_" x="86.1" y="88.8" width="34.7" height="23.3"/>
				</defs>
				<clipPath id="SVGID_84_">
					<use xlink:href="#SVGID_83_"  style="overflow:visible;"/>
				</clipPath>
				<g class="st54">
					<defs>
						<rect id="SVGID_85_" x="86.1" y="88.8" width="34.7" height="23.3"/>
					</defs>
					<clipPath id="SVGID_86_">
						<use xlink:href="#SVGID_85_"  style="overflow:visible;"/>
					</clipPath>
					<path class="st55" d="M103.8,90.3c-0.2,6.8-3.5,10.9-3.5,10.9c0,0,0.2-0.1,0.3-0.1c1.2,0,3.2-0.9,3.2-0.9
						c-0.5,1.2-0.7,4.9-0.7,4.9c0.2,3,3.1,5.2,3.1,5.2c-3.1-4.2-0.5-12.3-0.5-12.3l-1.9,0.5c1.4-2.6,1.6-8.2,1.6-8.2H103.8z"/>
				</g>
			</g>
		</g>
	</g>
</g>
</svg>
