<?xml version="1.0" encoding="utf-8"?>
<!-- Generator: Adobe Illustrator 22.1.0, SVG Export Plug-In . SVG Version: 6.00 Build 0)  -->
<svg version="1.1" id="Layer_1" xmlns="http://www.w3.org/2000/svg" xmlns:xlink="http://www.w3.org/1999/xlink" x="0px" y="0px"
	 viewBox="0 0 66.2 66.2" style="enable-background:new 0 0 66.2 66.2;" xml:space="preserve">
<style type="text/css">
	.st0{fill:#A2A2A2;}
	.st1{fill:#FFFFFF;}
</style>
<g id="Facebook_1_" transform="translate(7078 636.779)">
	<path id="Path_6" class="st0" d="M-7044.9-636.8c-18.3,0-33.1,14.8-33.1,33.1s14.8,33.1,33.1,33.1s33.1-14.8,33.1-33.1
		C-7011.8-621.9-7026.6-636.8-7044.9-636.8C-7044.9-636.8-7044.9-636.8-7044.9-636.8z"/>
	<path id="Path_7" class="st1" d="M-7043.1-587.1v-16.6h5l0.8-6.4h-5.8v-3.2c0-1.7,0.4-3,2.9-3h3.5v-5.1c-1-0.1-2.7-0.3-4.8-0.3
		c-4.4,0-7.8,2.7-7.8,7.8v3.8h-5.3v6.4h5.3v16.5H-7043.1z"/>
</g>
</svg>
