<svg xmlns="http://www.w3.org/2000/svg" viewBox="6775 972 73.318 78.958">
  <defs>
    <style>
      .cls-1 {
        fill: #5e4977;
      }
    </style>
  </defs>
  <g id="Group_7" data-name="Group 7" transform="translate(6775 972)">
    <rect id="Rectangle_15" data-name="Rectangle 15" class="cls-1" width="17.371" height="15.228" transform="translate(0 0)"/>
    <path id="Path_1" data-name="Path 1" class="cls-1" d="M58.542,37.674c5.64-3.158,10.377-8.121,10.377-17.032v-.226A18.109,18.109,0,0,0,63.5,6.993C58.993,2.482,51.886,0,42.863,0H23.123V15.228H40.268c7.332,0,11.392,2.933,11.392,8.121v.226c0,5.865-4.85,8.347-12.52,8.347H17.371V20.98H0V78.958H17.371v-32.6H43.2c8.911,0,12.859,3.271,12.859,8.573v.226c0,5.865-4.625,8.573-12.295,8.573H23.123V78.958H43.765c17.822,0,29.553-7.219,29.553-21.657v-.226C73.318,46.472,67.678,41.171,58.542,37.674Z" transform="translate(0 0)"/>
  </g>
</svg>
