<?xml version="1.0" encoding="utf-8"?>
<!-- Generator: Adobe Illustrator 22.1.0, SVG Export Plug-In . SVG Version: 6.00 Build 0)  -->
<svg version="1.1" id="Layer_1" xmlns="http://www.w3.org/2000/svg" xmlns:xlink="http://www.w3.org/1999/xlink" x="0px" y="0px"
	 viewBox="0 0 66.4 66.4" style="enable-background:new 0 0 66.4 66.4;" xml:space="preserve">
<style type="text/css">
	.st0{fill:#A2A2A2;}
	.st1{fill:#FFFFFF;}
</style>
<g id="LinKeDin_2_" transform="translate(7178.558 636.558)">
	<circle id="Ellipse_1" class="st0" cx="-7145.3" cy="-603.3" r="33.2"/>
	<g id="LinkedIn_1_" transform="translate(18.883 16.261)">
		<rect id="Rectangle_19" x="-7177.7" y="-627.2" class="st1" width="6.3" height="19.9"/>
		<path id="Path_8" class="st1" d="M-7154.3-627.4c-3.6,0-5.9,1.9-6.3,3.3v-3.1h-7.1c0.1,1.7,0,19.9,0,19.9h7.1V-618
			c0-0.6,0-1.1,0.2-1.7c0.5-1.5,1.9-2.5,3.4-2.4c2.4,0,3.6,1.8,3.6,4.5v10.3h7.2v-11C-7146.3-624.5-7149.8-627.4-7154.3-627.4z"/>
		<path id="Path_9" class="st1" d="M-7174.7-636.6c-2.4,0-3.8,1.5-3.8,3.5c0,1.9,1.6,3.4,3.5,3.4c0.1,0,0.2,0,0.3,0h0.1
			c2.4,0,3.8-1.5,3.8-3.5c-0.1-2-1.7-3.5-3.6-3.4C-7174.6-636.6-7174.6-636.6-7174.7-636.6z"/>
	</g>
</g>
</svg>
