<?xml version="1.0" encoding="utf-8"?>
<!-- Generator: Adobe Illustrator 20.1.0, SVG Export Plug-In . SVG Version: 6.00 Build 0)  -->
<svg version="1.1" id="Layer_1" xmlns="http://www.w3.org/2000/svg" xmlns:xlink="http://www.w3.org/1999/xlink" x="0px" y="0px"
	 viewBox="0 0 142.4 24.4" style="enable-background:new 0 0 142.4 24.4;" xml:space="preserve">
<g>
	<g>
		<g>
			<path d="M3.8,14.9c0,2.5,1.7,3.6,4.7,3.4c2-0.1,3.6-1,3.6-2.7c-0.1-3.1-8.3-3.7-8.5-8.7C3.3,3.2,6.2,1,10.4,0.8
				c2.3-0.2,4.4,0.4,6.6,0.5l-1.2,4.5l-1.4-0.1c0-0.3,0.2-0.5,0.1-0.8c-0.1-1.8-1.4-2.9-3.8-2.7C9.3,2.3,7.6,3,7.6,4.7
				c0.1,3.1,8.5,3.9,8.7,8.2c0.2,3.9-2.8,6.7-8,7.1c-2.4,0.2-5.9-0.7-7-1l1.4-5.3H4C3.8,14.5,3.8,14.9,3.8,14.9"/>
			<path d="M103.9,20.5l-3.1,2.1c-2,1.3-4.3,1.8-5.3,1.8c-4.5,0-4.4-4.9-4.4-6.1c0.3-4.9,4.9-11,11.9-11c1.5,0,3,1,2.8,3
				c-0.2,3.2-4.2,6.7-8.7,5.8c-0.8,2.9-0.5,5.4,1.7,5.4c1.2,0,2-0.8,4.2-2.3L103.9,20.5L103.9,20.5z M97.5,14.7
				c3,0.4,4.6-2.9,4.7-4.7c0.1-0.9-0.4-1.1-0.8-1.1C100.1,8.9,98,12,97.5,14.7"/>
			<path d="M69.4,19.8L69.2,20c-0.4,0.2-0.7,0.3-1,0.3c-0.2,0-0.4-0.2-0.4-0.6c0-0.3,0.1-0.5,0.2-1l2.9-11.1h-5.5l-0.9,3
				c-2.2,7.9-6.1,9.6-6.6,9.6c-0.8,0-0.5-1,0-2.6l2.5-8.6c0.1-0.3,0.1-0.5,0.1-0.8c0.1-0.7-0.3-1-0.6-1c-0.2,0-0.3,0.1-0.5,0.1
				l-7.2,2l0.3,1.4l0.1,0c0.5-0.1,0.7-0.2,1.1-0.2c0.3,0,0.5,0.2,0.4,0.5c0,0.3-0.1,0.7-0.3,1.2l-2.3,8.3c-0.2,0.7-0.3,1.3-0.4,1.8
				c-0.1,1.5,0.5,2.1,1.5,2.1c2.8,0,7-2.4,9.3-5.7l0.2-0.1l-0.5,1.8c-0.2,0.5-0.3,1.1-0.2,1.6c0.1,1.5,0.7,2.2,2,2.4l6.1-3.2
				L69.4,19.8z"/>
			<path d="M88,7.3c-3.7,0-6.8,3.3-7.6,4.2l-0.2-0.1L83.4,0l-7.7,0.6l-0.4,1.5l0.6,0c0.3,0,1,0,0.9,0.9c0,0.4-0.1,0.7-0.3,1.2
				L71.2,24h6c6.9,0,12.6-4.9,13.1-12.1C90.5,10,89.8,7.3,88,7.3L88,7.3z M84.5,13.9c-0.4,5.5-3.9,8.6-5.6,8.6
				c-0.6,0-1.2-0.1-1.7-0.4c1.6-8.3,5.1-11,6.4-11C84.7,11.2,84.5,13.1,84.5,13.9"/>
			<path d="M120.7,13l1.5-5.7c-3.3,0-4.1,1.3-7.2,5.4h-0.2l1-3.7c0.1-0.3,0.1-0.5,0.1-0.8c0.1-0.7-0.3-1-0.7-1c-0.1,0-0.2,0-0.4,0.1
				l-7.2,2l0.3,1.4l0.1,0c0.5-0.1,0.8-0.2,1.1-0.2c0.3,0,0.5,0.2,0.4,0.5c0,0.3,0,0.3-0.2,0.8L106.1,24h5.6l0.8-2.9
				c0.6-2.5,2.5-6.9,4-7.8c0.4-0.3,1.1-0.6,1.7-0.6C118.7,12.7,120.3,12.8,120.7,13z"/>
			<path d="M27.5,6.4h-2.9l1.2-4.1h-1.5c-0.8,1.2-2.9,3.3-4.1,3.4l-2.5,9.7c-0.2,0.8-0.3,1.5-0.3,2.1C17.2,19,17.9,20,20.1,20
				l4.5-1.3l-0.3-1.2c-0.4,0.1-0.8,0.2-1.1,0.2c-0.6,0-1.1-0.4-1-1.7c0-0.5,0.1-0.8,0.3-1.6l1.6-5.9H27L27.5,6.4z"/>
			<path d="M134.1,7.7h-3.6l1.5-5.1h-1.9c-1,1.5-3.6,4.1-5,4.1l-3.1,11.9c-0.2,0.9-0.4,1.8-0.4,2.5c-0.1,2.1,0.7,3.3,3.4,3.3
				l5.5-1.6l-0.3-1.5c-0.5,0.2-1,0.3-1.3,0.3c-0.8,0-1.4-0.5-1.3-2.1c0-0.6,0.2-1,0.4-1.9l1.9-7.3h3.6L134.1,7.7z"/>
			<path d="M33.4,24l3-11.4h6.6L40,24h8.1l0.5-1.9c-2-0.2-1.7-0.8-1.3-2.2L51.1,5c0.4-1.4,0.3-2,2.6-2.2l0.3-1.6h-8.1l-2.4,9.4h-6.6
				l2.4-9.4H31l-0.4,1.6c2,0.2,1.9,0.7,1.5,2.2l-3.9,14.9c-0.4,1.6-0.6,2.1-2.6,2.2H0.5L0,24H33.4z"/>
		</g>
	</g>
	<g>
		<path d="M136,2.2h0.6l0.1,3.5h0l2-3.5h0.6l-1.2,4.1h-0.5l1-3.4h0c-0.1,0.3-0.4,0.7-0.6,1.1l-1.4,2.3h-0.4l0-2.3c0-0.3,0-0.8,0-1h0
			l-1,3.4h-0.4L136,2.2z"/>
		<path d="M140.1,2.2h0.9c1.1,0,1.6,0.6,1.2,2.1c-0.4,1.5-1.2,2.1-2.3,2.1H139L140.1,2.2z M140.1,5.9c0.8,0,1.4-0.5,1.7-1.7
			c0.3-1.1,0.1-1.6-0.8-1.6h-0.5l-0.9,3.3H140.1z"/>
	</g>
</g>
</svg>
